# xmcd
#
# Track frame offsets:
#	150
#	13746
#	32973
#	48935
#	66251
#	79758
#	97115
#	111443
#	129220
#	145271
#	163948
#	178352
#	197404
#	215307
#	235863
#	250108
#	268828
#
# Disc length: 3803 seconds
#
# Revision: 0
# Processed by: cddbd v1.5.2PL0 Copyright (c) Steve Scherf et al.
# Submitted via: audiograbber 1.83.01
#
DISCID=f80ed911
DTITLE=Keith, Toby - CB5060-01
DYEAR=2007
DGENRE=Karaoke
TTITLE0=A little Less Talk (And Alot More Action)
TTITLE1=I Am So Happy I Cant Quit Crying
TTITLE2=Getcha Some
TTITLE3=You Shouldn't Kiss Me Like This
TTITLE4=Im Just Talkin About Tonight
TTITLE5=Stays In Mexico
TTITLE6=Sweet
TTITLE7=Does That Blue Moon Ever Shine On You
TTITLE8=A Little Too Late
TTITLE9=Nights I Can't Remember, Friends I'll Never Forget
TTITLE10=It Works For Me
TTITLE11=I love This Bar
TTITLE12=Americian Soldier
TTITLE13=Upstairs Downtown
TTITLE14=Get Drunk And Be Somebody
TTITLE15=Dream Walking
TTITLE16=Wish I Didn't Know Now
EXTD=
EXTT0=
EXTT1=
EXTT2=
EXTT3=
EXTT4=
EXTT5=
EXTT6=
EXTT7=
EXTT8=
EXTT9=
EXTT10=
EXTT11=
EXTT12=
EXTT13=
EXTT14=
EXTT15=
EXTT16=
PLAYORDER=
